<?xml version="1.0" encoding="UTF-8"?>
<svg id="Calque_1" data-name="Calque 1" xmlns="http://www.w3.org/2000/svg" version="1.1" xmlns:xlink="http://www.w3.org/1999/xlink" viewBox="0 0 36 37">
  <defs>
    <style>
      .cls-1 {
        fill: #10b981;
      }

      .cls-1, .cls-2, .cls-3, .cls-4 {
        stroke-width: 0px;
      }

      .cls-2 {
        isolation: isolate;
      }

      .cls-2, .cls-4 {
        fill: #fff;
      }

      .cls-2, .cls-5 {
        opacity: .2;
      }

      .cls-3 {
        fill: none;
      }

      .cls-6 {
        clip-path: url(#clippath);
      }
    </style>
    <clipPath id="clippath">
      <rect class="cls-3" y=".5" width="36" height="36"/>
    </clipPath>
  </defs>
  <g class="cls-6">
    <g>
      <path class="cls-1" d="M32.1,33.1c-5.5,4.5-22.7,4.5-28.1,0-5.6-4.5-5-23.7,0-28.8C8.8-.8,27.1-.8,32,4.3c5,5.1,5.6,24.3,0,28.8Z"/>
      <g class="cls-5">
        <path class="cls-2" d="M18.1,25.3c-4.9,3.9-10.5,6-15.6,6.1C-1.3,24.9-.5,9,4,4.4,8,.2,20.7-.6,28,2c1.8,7.4-1.9,16.8-9.9,23.3Z"/>
      </g>
    </g>
  </g>
  <path class="cls-4" d="M24.3,17.2h-4.6c-.1,0-.3-.1-.3-.3v-4.6c0-.7-.6-1.3-1.3-1.3s-1.3.6-1.3,1.3v4.6c0,.1-.1.3-.3.3h-4.6c-.7,0-1.3.6-1.3,1.3s.6,1.3,1.3,1.3h4.6c.1,0,.3.1.3.3v4.6c0,.7.6,1.3,1.3,1.3s1.3-.6,1.3-1.3v-4.6c0-.1.1-.3.3-.3h4.6c.7,0,1.3-.6,1.3-1.3s-.6-1.3-1.3-1.3Z"/>
</svg>