<svg width="350" height="383" viewBox="0 0 350 383" fill="none" xmlns="http://www.w3.org/2000/svg">
<path d="M198.495 94.9142C196.399 94.0631 194.232 93.3707 192.056 92.8545C190.857 92.577 189.664 93.3105 189.38 94.5041C189.097 95.699 189.836 96.8966 191.03 97.1803C192.987 97.6438 194.937 98.2673 196.824 99.0329C197.959 99.4936 199.257 98.9495 199.719 97.8086C200.182 96.6718 199.633 95.3756 198.495 94.9142Z" fill="#060A14"/>
<path d="M218.816 111.454C216.103 107.41 212.786 103.856 208.962 100.89C207.992 100.138 206.594 100.315 205.843 101.284C205.091 102.255 205.268 103.651 206.238 104.403C209.638 107.039 212.592 110.192 215.021 113.777C215.675 114.961 217.22 115.283 218.289 114.489C219.259 113.768 219.471 112.43 218.816 111.454Z" fill="#060A14"/>
<path d="M297.861 312.093C296.632 312.027 295.58 312.947 295.503 314.172C294.777 325.663 287.967 336.152 277.73 341.544C276.644 342.116 276.227 343.46 276.799 344.546C277.365 345.623 278.702 346.054 279.801 345.477C291.4 339.368 299.117 327.48 299.939 314.452C300.016 313.227 299.086 312.171 297.861 312.093Z" fill="#060A14"/>
<path d="M266.347 345.108C263.372 345.477 261.425 345.323 258.725 345.359C257.497 345.359 256.503 346.354 256.503 347.582C256.503 348.81 257.498 349.805 258.725 349.805C261.226 349.769 263.542 349.935 266.893 349.521C268.111 349.37 268.976 348.261 268.827 347.043C268.676 345.824 267.573 344.956 266.347 345.108Z" fill="#060A14"/>
<path d="M52.2792 91.2932C51.0515 91.2932 50.0562 92.2886 50.0562 93.5163V127.089C50.0562 128.317 51.0515 129.312 52.2792 129.312C53.5069 129.312 54.5022 128.317 54.5022 127.089V93.5163C54.5016 92.2886 53.5069 91.2932 52.2792 91.2932Z" fill="#060A14"/>
<path d="M52.2792 73.4405C51.0515 73.4405 50.0562 74.4358 50.0562 75.6636V81.7988C50.0562 83.0266 51.0515 84.0219 52.2792 84.0219C53.5069 84.0219 54.5022 83.0266 54.5022 81.7988V75.6636C54.5016 74.4351 53.5069 73.4405 52.2792 73.4405Z" fill="#060A14"/>
<path d="M262.244 38.0269H260.661V23.7658C260.661 8.65156 246.649 -2.53341 231.943 0.773821L66.0215 38.0803C65.0255 38.3113 64.279 39.3606 64.279 40.2493V312.026C64.279 325.024 74.8412 335.586 87.8397 335.586H262.243C275.242 335.586 285.804 325.024 285.804 312.026V61.5877C285.804 48.5892 275.242 38.0269 262.244 38.0269ZM281.359 312.026C281.359 322.571 272.788 331.142 262.244 331.142H87.8397C77.2953 331.142 68.7244 322.571 68.7244 312.026V42.4724H262.243C272.787 42.4724 281.358 51.0433 281.358 61.5877V312.026H281.359Z" fill="#060A14"/>
<path d="M102.563 189.386C102.563 195.289 97.7443 200.108 91.823 200.108C85.9017 200.108 81.1008 195.289 81.1008 189.386C81.1008 183.464 85.9017 178.646 91.823 178.646C97.7443 178.645 102.563 183.464 102.563 189.386Z" fill="#060A14"/>
<path d="M219.159 178.413H124.963C123.735 178.413 122.74 179.409 122.74 180.636C122.74 181.864 123.735 182.859 124.963 182.859H219.16C220.387 182.859 221.383 181.864 221.383 180.636C221.383 179.409 220.387 178.413 219.159 178.413Z" fill="#060A14"/>
<path d="M124.963 200.341H168.885C170.113 200.341 171.108 199.346 171.108 198.118C171.108 196.89 170.113 195.895 168.885 195.895H124.963C123.735 195.895 122.74 196.891 122.74 198.118C122.74 199.346 123.735 200.341 124.963 200.341Z" fill="#060A14"/>
<path d="M249.32 191.6H266.775C268.003 191.6 268.998 190.605 268.998 189.378C268.998 188.151 268.003 187.155 266.775 187.155H249.32C248.092 187.155 247.097 188.15 247.097 189.378C247.097 190.606 248.092 191.6 249.32 191.6Z" fill="#060A14"/>
<path d="M102.563 240.419C102.563 246.341 97.7443 251.159 91.823 251.159C85.9017 251.159 81.1008 246.341 81.1008 240.419C81.1008 234.498 85.9017 229.697 91.823 229.697C97.7443 229.696 102.563 234.497 102.563 240.419Z" fill="#060A14"/>
<path d="M219.159 229.459H124.963C123.735 229.459 122.74 230.454 122.74 231.682C122.74 232.91 123.735 233.905 124.963 233.905H219.16C220.387 233.905 221.383 232.91 221.383 231.682C221.383 230.454 220.387 229.459 219.159 229.459Z" fill="#060A14"/>
<path d="M124.963 251.388H168.885C170.113 251.388 171.108 250.393 171.108 249.166C171.108 247.939 170.113 246.943 168.885 246.943H124.963C123.735 246.943 122.74 247.938 122.74 249.166C122.74 250.394 123.735 251.388 124.963 251.388Z" fill="#060A14"/>
<path d="M249.32 242.646H266.775C268.003 242.646 268.998 241.651 268.998 240.423C268.998 239.196 268.003 238.201 266.775 238.201H249.32C248.092 238.201 247.097 239.196 247.097 240.423C247.097 241.65 248.092 242.646 249.32 242.646Z" fill="#060A14"/>
<path d="M102.563 291.47C102.563 297.391 97.7443 302.21 91.823 302.21C85.9017 302.21 81.1008 297.391 81.1008 291.47C81.1008 285.549 85.9017 280.73 91.823 280.73C97.7443 280.73 102.563 285.549 102.563 291.47Z" fill="#060A14"/>
<path d="M219.159 280.506H124.963C123.735 280.506 122.74 281.501 122.74 282.729C122.74 283.957 123.735 284.951 124.963 284.951H219.16C220.387 284.951 221.383 283.956 221.383 282.729C221.382 281.5 220.387 280.506 219.159 280.506Z" fill="#060A14"/>
<path d="M168.885 297.989H124.962C123.735 297.989 122.739 298.984 122.739 300.211C122.739 301.439 123.735 302.434 124.962 302.434H168.885C170.112 302.434 171.108 301.439 171.108 300.211C171.108 298.983 170.112 297.989 168.885 297.989Z" fill="#060A14"/>
<path d="M240.372 133.871C239.269 103.784 215.389 79.4233 185.498 77.592C186.423 76.1517 186.974 74.4447 186.974 72.6127C186.974 67.4741 182.813 63.3131 177.692 63.3131C172.553 63.3131 168.392 67.4741 168.392 72.6127C168.392 74.444 168.943 76.151 169.868 77.592C139.995 79.4233 116.132 103.749 115.011 133.8H114.816C111.651 133.8 109.072 136.361 109.072 139.526V145.162C109.072 148.31 111.651 150.888 114.816 150.888H239.608C242.755 150.888 245.334 148.31 245.334 145.162V139.526C245.333 136.626 243.163 134.244 240.372 133.871ZM177.691 67.7578C180.359 67.7578 182.528 69.9269 182.528 72.612C182.528 75.2794 180.358 77.4491 177.691 77.4491C175.006 77.4491 172.837 75.2794 172.837 72.612C172.836 69.9275 175.006 67.7578 177.691 67.7578ZM173.512 81.9123H181.87C210.961 81.9123 234.753 104.993 235.927 133.8H119.438C120.612 104.993 144.404 81.9123 173.512 81.9123Z" fill="#060A14"/>
<g clip-path="url(#clip0_84_394)">
<path d="M322.583 374.1C308.047 385.967 262.657 385.967 248.416 374.1C233.88 362.233 235.363 311.503 248.416 298.153C261.47 284.803 309.53 284.803 322.583 298.153C335.637 311.503 337.12 362.233 322.583 374.1Z" fill="#F1F5F9"/>
<g opacity="0.2">
<path opacity="0.2" d="M285.797 353.333C272.743 363.717 258.207 369.057 244.56 369.353C234.473 352.147 236.55 310.317 248.417 298.153C259.097 287.177 292.62 285.1 311.903 291.923C316.65 311.503 306.86 336.423 285.797 353.333Z" fill="#F1F5F9"/>
</g>
<path d="M313.683 335.534C313.683 338.5 311.31 340.874 308.343 340.874H290.544V358.673C290.544 361.64 288.17 364.013 285.204 364.013C282.237 364.013 279.864 361.64 279.864 358.673V340.874H262.063C259.097 340.874 256.723 338.5 256.723 335.534C256.723 332.567 259.097 330.194 262.063 330.194H279.863V312.394C279.863 309.427 282.237 307.054 285.203 307.054C288.17 307.054 290.543 309.427 290.543 312.394V330.194H308.343C311.31 330.194 313.683 332.567 313.683 335.534Z" fill="#F1F5F9"/>
</g>
<g clip-path="url(#clip1_84_394)">
<path d="M314.776 365.974C303.3 375.342 267.466 375.342 256.224 365.974C244.747 356.605 245.918 316.555 256.224 306.016C266.529 295.476 304.471 295.476 314.776 306.016C325.082 316.555 326.253 356.605 314.776 365.974Z" fill="#059669"/>
<g opacity="0.2">
<path opacity="0.2" d="M285.734 349.579C275.429 357.776 263.953 361.992 253.179 362.226C245.216 348.642 246.855 315.619 256.224 306.016C264.655 297.35 291.121 295.711 306.345 301.097C310.092 316.555 302.363 336.229 285.734 349.579Z" fill="white"/>
</g>
<path d="M307.75 335.526C307.75 337.869 305.876 339.742 303.534 339.742H289.482V353.795C289.482 356.137 287.608 358.011 285.266 358.011C282.924 358.011 281.05 356.137 281.05 353.795V339.742H266.997C264.655 339.742 262.782 337.869 262.782 335.526C262.782 333.184 264.655 331.311 266.997 331.311H281.05V317.258C281.05 314.916 282.924 313.042 285.266 313.042C287.608 313.042 289.482 314.916 289.482 317.258V331.311H303.534C305.876 331.311 307.75 333.184 307.75 335.526Z" fill="white"/>
</g>
<defs>
<clipPath id="clip0_84_394">
<rect width="95" height="95" fill="white" transform="translate(238 288)"/>
</clipPath>
<clipPath id="clip1_84_394">
<rect width="75" height="75" fill="white" transform="translate(248 298)"/>
</clipPath>
</defs>
</svg>
