<svg width="63" height="67" viewBox="0 0 63 67" fill="none" xmlns="http://www.w3.org/2000/svg">
<g filter="url(#filter0_dd_265_66)">
<path d="M59.9998 53.3332L59.9998 16.6666C59.9998 12.9848 57.0151 10 53.3332 10L16.6666 10C12.9848 10 10 12.9848 10 16.6666L10 53.3332C10 57.0151 12.9848 59.9999 16.6666 59.9999L53.3332 59.9999C57.0151 59.9999 59.9998 57.0151 59.9998 53.3332Z" fill="#FB923C"/>
<path d="M59.5832 53.333L59.5832 16.6665C59.5832 13.2147 56.785 10.4165 53.3333 10.4165L16.6667 10.4165C13.2149 10.4165 10.4167 13.2147 10.4167 16.6665L10.4167 53.333C10.4167 56.7848 13.2149 59.583 16.6667 59.583L53.3333 59.583C56.785 59.583 59.5832 56.7848 59.5832 53.333Z" stroke="#FB923C" stroke-width="0.5"/>
<path fill-rule="evenodd" clip-rule="evenodd" d="M10 31.6667C10 47.3147 22.6851 60 38.3332 60C47.0249 60 54.8025 56.0863 59.9998 49.9252L59.9998 16.6666C59.9998 12.9848 57.0151 10 53.3332 10L20.0748 10C13.9137 15.1974 10 22.9749 10 31.6667Z" fill="#FDBA74"/>
<path d="M41.1458 30.6186C40.7143 30.6186 40.3646 30.9684 40.3646 31.3998V32.6823C39.845 32.7027 39.157 32.6044 38.1718 32.8773C38.2339 32.3947 38.2321 31.9034 38.1627 31.4206C37.8259 29.0762 36.2329 28.08 35.7813 27.5213V25.7812C35.7813 25.3498 35.4315 25 35 25C34.5685 25 34.2188 25.3498 34.2188 25.7812V27.5213C33.763 28.085 32.1734 29.0803 31.8373 31.4206C31.768 31.9034 31.7662 32.3947 31.8282 32.8773C30.8475 32.6056 30.164 32.7031 29.6354 32.6823V31.3998C29.6354 30.9684 29.2857 30.6186 28.8542 30.6186C28.4227 30.6186 28.0729 30.9684 28.0729 31.3998V35C28.0729 35.8155 28.2571 36.6114 28.604 37.3334C28.2954 37.4378 28.0729 37.7291 28.0729 38.0729V39.6094C28.0729 42.5818 30.4912 45 33.4636 45H36.5365C39.5089 45 41.9271 42.5818 41.9271 39.6094V38.0729C41.9271 37.7291 41.7047 37.4378 41.3961 37.3334C41.743 36.6114 41.9271 35.8155 41.9271 35C41.9271 34.4862 41.9271 31.9129 41.9271 31.3998C41.9271 30.9684 41.5773 30.6186 41.1458 30.6186ZM40.3646 34.2448C40.3178 34.6604 40.5941 35.9667 39.6023 37.2918C38.1096 37.2937 36.7572 37.9056 35.7813 38.8909V38.0729C35.7813 35.9621 37.4986 34.2448 39.6094 34.2448H40.3646ZM33.384 31.6428C33.6194 30.0036 34.7269 29.2908 35 28.9498C35.2741 29.292 36.3808 30.0039 36.6161 31.6428C36.7229 32.3862 36.6059 33.1571 36.2867 33.8317C35.776 34.2327 35.3388 34.7232 35 35.2802C34.6613 34.7232 34.2241 34.2327 33.7133 33.8316C33.3941 33.1571 33.2772 32.3861 33.384 31.6428ZM34.2188 38.0729V38.8909C33.2428 37.9056 31.8904 37.2937 30.3977 37.2918C29.4054 35.966 29.6825 34.6633 29.6354 34.2448H30.3906C32.5015 34.2448 34.2188 35.9621 34.2188 38.0729ZM29.6354 39.6094V38.8542H30.3906C32.5015 38.8542 34.2188 40.5715 34.2188 42.6823V43.4375H33.4636C31.3527 43.4375 29.6354 41.7202 29.6354 39.6094ZM40.3646 39.6094C40.3646 41.7202 38.6473 43.4375 36.5365 43.4375H35.7813V42.6823C35.7813 40.5715 37.4986 38.8542 39.6094 38.8542H40.3646V39.6094Z" fill="white"/>
</g>
<g clip-path="url(#clip0_265_66)">
<path d="M29.2941 11.5842L26.9884 11.0829C26.7879 10.4691 26.5395 9.8703 26.2463 9.29352L27.5228 7.30797C27.7508 6.9532 27.7007 6.48743 27.4026 6.18942L23.8106 2.59735C23.5126 2.29935 23.0468 2.24922 22.692 2.47719L20.7065 3.75366C20.1297 3.46046 19.5309 3.21213 18.9171 3.01163L18.4158 0.705872C18.3263 0.293884 17.9615 0 17.5399 0H12.4601C12.0385 0 11.6737 0.293884 11.5842 0.705872L11.0829 3.01163C10.4691 3.21213 9.8703 3.46046 9.29352 3.75366L7.30797 2.47719C6.9532 2.24922 6.48743 2.29935 6.18942 2.59735L2.59735 6.18942C2.29935 6.48743 2.24922 6.9532 2.47719 7.30797L3.75366 9.29352C3.46046 9.8703 3.21213 10.4691 3.01163 11.0829L0.705872 11.5842C0.293884 11.6739 0 12.0385 0 12.4601V17.5399C0 17.9615 0.293884 18.3261 0.705872 18.4158L3.01163 18.9171C3.21213 19.5309 3.46046 20.1297 3.75366 20.7065L2.47719 22.692C2.24922 23.0468 2.29935 23.5126 2.59735 23.8106L6.18942 27.4026C6.48743 27.7007 6.9532 27.7508 7.30797 27.5228L9.29352 26.2463C9.8703 26.5395 10.4691 26.7879 11.0829 26.9884L11.5842 29.2941C11.6737 29.7061 12.0385 30 12.4601 30H17.5399C17.9615 30 18.3263 29.7061 18.4158 29.2941L18.9171 26.9884C19.5309 26.7879 20.1297 26.5395 20.7065 26.2463L22.692 27.5228C23.0468 27.7508 23.5126 27.7009 23.8106 27.4026L27.4026 23.8106C27.7007 23.5126 27.7508 23.0468 27.5228 22.692L26.2463 20.7065C26.5395 20.1297 26.7879 19.5309 26.9884 18.9171L29.2941 18.4158C29.7061 18.3261 30 17.9615 30 17.5399V12.4601C30 12.0385 29.7061 11.6739 29.2941 11.5842ZM20.3785 15C20.3785 17.9656 17.9656 20.3785 15 20.3785C12.0344 20.3785 9.62151 17.9656 9.62151 15C9.62151 12.0344 12.0344 9.62151 15 9.62151C17.9656 9.62151 20.3785 12.0344 20.3785 15Z" fill="#0F172A"/>
</g>
<defs>
<filter id="filter0_dd_265_66" x="7" y="10" width="55.9998" height="57" filterUnits="userSpaceOnUse" color-interpolation-filters="sRGB">
<feFlood flood-opacity="0" result="BackgroundImageFix"/>
<feColorMatrix in="SourceAlpha" type="matrix" values="0 0 0 0 0 0 0 0 0 0 0 0 0 0 0 0 0 0 127 0" result="hardAlpha"/>
<feOffset dy="4"/>
<feGaussianBlur stdDeviation="1.5"/>
<feComposite in2="hardAlpha" operator="out"/>
<feColorMatrix type="matrix" values="0 0 0 0 0 0 0 0 0 0 0 0 0 0 0 0 0 0 0.07 0"/>
<feBlend mode="normal" in2="BackgroundImageFix" result="effect1_dropShadow_265_66"/>
<feColorMatrix in="SourceAlpha" type="matrix" values="0 0 0 0 0 0 0 0 0 0 0 0 0 0 0 0 0 0 127 0" result="hardAlpha"/>
<feOffset dy="2"/>
<feGaussianBlur stdDeviation="1"/>
<feComposite in2="hardAlpha" operator="out"/>
<feColorMatrix type="matrix" values="0 0 0 0 0 0 0 0 0 0 0 0 0 0 0 0 0 0 0.06 0"/>
<feBlend mode="normal" in2="effect1_dropShadow_265_66" result="effect2_dropShadow_265_66"/>
<feBlend mode="normal" in="SourceGraphic" in2="effect2_dropShadow_265_66" result="shape"/>
</filter>
<clipPath id="clip0_265_66">
<rect width="30" height="30" fill="white"/>
</clipPath>
</defs>
</svg>
