<svg width="25" height="20" viewBox="0 0 25 20" fill="none" xmlns="http://www.w3.org/2000/svg">
<path d="M0.732481 17.3333H4.39458V19.3333C4.39458 19.7015 4.72251 20 5.127 20H24.2676C24.6721 20 25 19.7015 25 19.3333V2C25 1.63182 24.6721 1.33333 24.2676 1.33333H20.6055V0.666667C20.6055 0.298489 20.2776 0 19.8731 0C19.4686 0 19.1406 0.298489 19.1406 0.666667V1.33333H15.4297V0.666667C15.4297 0.298489 15.1018 0 14.6973 0C14.2928 0 13.9649 0.298489 13.9649 0.666667V1.33333H10.3028V0.666667C10.3028 0.298489 9.97484 0 9.57035 0C9.16586 0 8.83793 0.298489 8.83793 0.666667V1.33333H5.127C4.72251 1.33333 4.39458 1.63182 4.39458 2V6C4.39458 10.9133 2.15118 14.6932 0.263586 16.1545C0.0266723 16.3342 -0.0611692 16.6297 0.0437622 16.8936C0.148791 17.1576 0.424084 17.3333 0.732481 17.3333ZM23.5352 18.6667H5.85942V17.3333H19.8731C20.0444 17.3333 20.2103 17.2787 20.342 17.1788C21.2224 16.5113 22.5862 14.922 23.5352 12.8866V18.6667ZM5.85942 2.66667H8.83793V3.33333C8.83793 3.70151 9.16586 4 9.57035 4C9.97484 4 10.3028 3.70151 10.3028 3.33333V2.66667H13.9649V3.33333C13.9649 3.70151 14.2928 4 14.6973 4C15.1018 4 15.4297 3.70151 15.4297 3.33333V2.66667H19.1406V3.33333C19.1406 3.70151 19.4686 4 19.8731 4C20.2776 4 20.6055 3.70151 20.6055 3.33333V2.66667H23.5352V5.33333H5.85942V2.66667ZM5.84687 6.66622H23.5222C23.3571 10.8953 21.5739 14.2228 19.5859 16H2.39844C4.65103 13.3875 5.72602 9.98587 5.84687 6.66622Z" fill="#0F172A"/>
</svg>
