<?xml version="1.0" encoding="utf-8"?>
<!-- Generator: Adobe Illustrator 28.1.0, SVG Export Plug-In . SVG Version: 6.00 Build 0)  -->
<svg version="1.1" id="Calque_1" xmlns="http://www.w3.org/2000/svg" xmlns:xlink="http://www.w3.org/1999/xlink" x="0px" y="0px"
	 viewBox="0 0 36 37" style="enable-background:new 0 0 36 37;" xml:space="preserve">
<style type="text/css">
	.st0{clip-path:url(#SVGID_00000111154469819581934800000007653696334764989326_);}
	.st1{fill:#FB923C;}
	.st2{opacity:0.2;}
	.st3{opacity:0.2;fill:#FFFFFF;enable-background:new    ;}
	.st4{clip-path:url(#SVGID_00000108294503697574512030000014061809528515674000_);}
	.st5{fill:#FFFFFF;}
</style>
<g>
	<defs>
		<rect id="SVGID_1_" x="0" y="0.5" width="36" height="36"/>
	</defs>
	<clipPath id="SVGID_00000180329678567270628000000011432985805592423552_">
		<use xlink:href="#SVGID_1_"  style="overflow:visible;"/>
	</clipPath>
	<g style="clip-path:url(#SVGID_00000180329678567270628000000011432985805592423552_);">
		<path class="st1" d="M32.1,33.1c-5.5,4.5-22.7,4.5-28.1,0C-1.6,28.6-1,9.4,3.9,4.3c4.9-5.1,23.2-5.1,28.1,0
			C37,9.4,37.6,28.6,32.1,33.1z"/>
		<g class="st2">
			<path class="st3" d="M18.1,25.3c-4.9,3.9-10.5,6-15.6,6.1c-3.8-6.5-3-22.4,1.5-27C8,0.2,20.7-0.6,28,2
				C29.8,9.4,26.1,18.8,18.1,25.3z"/>
		</g>
		<g>
			<g>
				<defs>
					<rect id="SVGID_00000176036726120315271280000017184381154896765885_" x="10.8" y="11.3" width="14.4" height="14.4"/>
				</defs>
				<clipPath id="SVGID_00000092456622829786108690000017213140069110465196_">
					<use xlink:href="#SVGID_00000176036726120315271280000017184381154896765885_"  style="overflow:visible;"/>
				</clipPath>
				<g style="clip-path:url(#SVGID_00000092456622829786108690000017213140069110465196_);">
					<path class="st5" d="M10.8,25.1c0,0.1,0,0.3,0.1,0.4s0.2,0.1,0.3,0.1h0.1l3.9-1.1L12,21.2L10.8,25.1z"/>
					<path class="st5" d="M11.2,25.7c-0.1,0-0.2,0-0.3-0.1s-0.2-0.3-0.1-0.4l1.1-4l3.4,3.4L11.2,25.7C11.3,25.7,11.3,25.7,11.2,25.7
						z M12,21.2l-1.1,3.9c0,0.1,0,0.3,0.1,0.4s0.2,0.1,0.3,0.1h0.1l3.9-1.1L12,21.2z"/>
					<path class="st5" d="M24.8,13.5L23,11.7c-0.2-0.2-0.6-0.4-0.9-0.4s-0.7,0.1-0.9,0.4l-0.9,0.9l3.6,3.6l0.9-0.9
						c0.2-0.2,0.4-0.6,0.4-0.9C25.2,14,25.1,13.7,24.8,13.5z"/>
					<path class="st5" d="M23.9,16.2l-3.6-3.6l0.9-0.9c0.2-0.2,0.6-0.4,0.9-0.4s0.7,0.1,0.9,0.4l1.8,1.8c0.2,0.2,0.4,0.6,0.4,0.9
						c0,0.3-0.1,0.7-0.4,0.9L23.9,16.2z M20.4,12.6l3.6,3.6l0.9-0.9c0.2-0.2,0.4-0.5,0.4-0.9c0-0.3-0.1-0.6-0.4-0.9L23,11.7
						c-0.2-0.2-0.6-0.4-0.9-0.4s-0.6,0.1-0.9,0.4L20.4,12.6z"/>
					<path class="st5" d="M12.4,20.5l7.3-7.3l3.6,3.6L16,24.1L12.4,20.5z"/>
					<path class="st5" d="M16,24.1l-3.6-3.6l7.3-7.3l3.6,3.6L16,24.1z M12.4,20.5l3.6,3.6l7.3-7.3l-3.6-3.6L12.4,20.5z"/>
				</g>
			</g>
		</g>
	</g>
</g>
</svg>
