<svg width="36" height="37" viewBox="0 0 36 37" fill="none" xmlns="http://www.w3.org/2000/svg">
<g filter="url(#filter0_dd_345_2)">
<path d="M33 26L33 4C33 1.79086 31.2091 2.13558e-08 29 4.76995e-08L7 3.10047e-07C4.79086 3.36391e-07 3 1.79086 3 4L3 26C3 28.2091 4.79086 30 7 30L29 30C31.2091 30 33 28.2091 33 26Z" fill="#FB923C"/>
<path d="M32.75 26L32.75 4C32.75 1.92893 31.0711 0.25 29 0.25L7 0.25C4.92893 0.25 3.25 1.92893 3.25 4L3.25 26C3.25 28.0711 4.92893 29.75 7 29.75L29 29.75C31.0711 29.75 32.75 28.0711 32.75 26Z" stroke="#FB923C" stroke-width="0.5"/>
<path fill-rule="evenodd" clip-rule="evenodd" d="M3 13.0001C3 22.3889 10.6111 30.0001 20 30.0001C25.215 30.0001 29.8816 27.6519 33 23.9552L33 4C33 1.79086 31.2091 2.13558e-08 29 4.76995e-08L9.0449 2.85662e-07C5.3482 3.11844 3 7.78498 3 13.0001Z" fill="#FDBA74"/>
<g clip-path="url(#clip0_345_2)">
<path d="M12.0242 20.5406C11.989 20.6626 12.0242 20.7962 12.1132 20.8853C12.1788 20.9508 12.2703 20.9883 12.3617 20.9883C12.3944 20.9883 12.4273 20.9837 12.4578 20.9742L15.7343 20.0391L12.9593 17.2642L12.0242 20.5406Z" fill="white"/>
<path d="M12.3616 21C12.2655 21 12.1741 20.9624 12.1062 20.8945C12.0124 20.8008 11.9773 20.6648 12.0147 20.5383L12.9569 17.2429L15.7601 20.0461L12.46 20.9859C12.4273 20.9953 12.3944 21 12.3616 21ZM12.9663 17.2851L12.0359 20.5429C12.003 20.6625 12.0359 20.789 12.1226 20.8757C12.1858 20.939 12.2725 20.9742 12.3616 20.9742C12.3921 20.9742 12.4249 20.9695 12.4554 20.9601L15.7132 20.0297L12.9663 17.2851Z" fill="white"/>
<path d="M23.6797 10.8094L22.1914 9.32108C21.9899 9.12186 21.7274 9.01172 21.4438 9.01172C21.1625 9.01172 20.8977 9.12186 20.6985 9.31879L19.9531 10.064L22.9321 13.043L23.6774 12.2976C23.8766 12.0984 23.9844 11.8336 23.9844 11.5523C23.9868 11.2711 23.8766 11.0086 23.6797 10.8094Z" fill="white"/>
<path d="M22.9343 13.0594L19.939 10.064L20.6913 9.31174C20.8929 9.11014 21.16 9 21.4436 9C21.7296 9 21.9968 9.11014 22.196 9.31174L23.6843 10.8C23.8858 11.0015 23.9959 11.2688 23.9959 11.5523C23.9959 11.8383 23.8858 12.1055 23.6843 12.3047L22.9343 13.0594ZM19.9717 10.064L22.9343 13.0266L23.6702 12.2906C23.867 12.0938 23.9749 11.8336 23.9749 11.5547C23.9749 11.2758 23.867 11.0156 23.6702 10.8188L22.1819 9.32812C21.9851 9.13129 21.7225 9.02344 21.4436 9.02344C21.1648 9.02344 20.9046 9.13129 20.7077 9.32812L19.9717 10.064Z" fill="white"/>
<path d="M13.355 16.6644L19.4586 10.5607L22.4384 13.5404L16.3347 19.6442L13.355 16.6644Z" fill="white"/>
<path d="M16.3345 19.6616L13.3369 16.664L19.4588 10.5444L22.4541 13.5398L16.3345 19.6616ZM13.3721 16.664L16.3345 19.6265L22.4212 13.5398L19.4588 10.5773L13.3721 16.664Z" fill="white"/>
</g>
</g>
<defs>
<filter id="filter0_dd_345_2" x="0" y="0" width="36" height="37.0001" filterUnits="userSpaceOnUse" color-interpolation-filters="sRGB">
<feFlood flood-opacity="0" result="BackgroundImageFix"/>
<feColorMatrix in="SourceAlpha" type="matrix" values="0 0 0 0 0 0 0 0 0 0 0 0 0 0 0 0 0 0 127 0" result="hardAlpha"/>
<feOffset dy="4"/>
<feGaussianBlur stdDeviation="1.5"/>
<feComposite in2="hardAlpha" operator="out"/>
<feColorMatrix type="matrix" values="0 0 0 0 0 0 0 0 0 0 0 0 0 0 0 0 0 0 0.07 0"/>
<feBlend mode="normal" in2="BackgroundImageFix" result="effect1_dropShadow_345_2"/>
<feColorMatrix in="SourceAlpha" type="matrix" values="0 0 0 0 0 0 0 0 0 0 0 0 0 0 0 0 0 0 127 0" result="hardAlpha"/>
<feOffset dy="2"/>
<feGaussianBlur stdDeviation="1"/>
<feComposite in2="hardAlpha" operator="out"/>
<feColorMatrix type="matrix" values="0 0 0 0 0 0 0 0 0 0 0 0 0 0 0 0 0 0 0.06 0"/>
<feBlend mode="normal" in2="effect1_dropShadow_345_2" result="effect2_dropShadow_345_2"/>
<feBlend mode="normal" in="SourceGraphic" in2="effect2_dropShadow_345_2" result="shape"/>
</filter>
<clipPath id="clip0_345_2">
<rect width="12" height="12" fill="white" transform="translate(12 9)"/>
</clipPath>
</defs>
</svg>
