<?xml version="1.0" encoding="UTF-8"?>
<svg id="Calque_1" data-name="Calque 1" xmlns="http://www.w3.org/2000/svg" version="1.1" xmlns:xlink="http://www.w3.org/1999/xlink" viewBox="0 0 36 37">
  <defs>
    <style>
      .cls-1 {
        isolation: isolate;
      }

      .cls-1, .cls-2, .cls-3, .cls-4 {
        stroke-width: 0px;
      }

      .cls-1, .cls-4 {
        fill: #fff;
      }

      .cls-1, .cls-5 {
        opacity: .2;
      }

      .cls-2 {
        fill: #ef4444;
      }

      .cls-3 {
        fill: none;
      }

      .cls-6 {
        clip-path: url(#clippath);
      }
    </style>
    <clipPath id="clippath">
      <rect class="cls-3" y=".5" width="36" height="36"/>
    </clipPath>
  </defs>
  <g class="cls-6">
    <g>
      <path class="cls-2" d="M32.1,33.1c-5.5,4.5-22.7,4.5-28.1,0-5.6-4.5-5-23.7,0-28.8C8.8-.8,27.1-.8,32,4.3c5,5.1,5.6,24.3,0,28.8Z"/>
      <g class="cls-5">
        <path class="cls-1" d="M18.1,25.3c-4.9,3.9-10.5,6-15.6,6.1C-1.3,24.9-.5,9,4,4.4,8,.2,20.7-.6,28,2c1.8,7.4-1.9,16.8-9.9,23.3Z"/>
      </g>
    </g>
  </g>
  <path class="cls-4" d="M12.3,15.4l.8,9.4c0,.7.6,1.2,1.3,1.2h7.2c.7,0,1.3-.5,1.3-1.2l.8-9.4h-11.4ZM15.8,24.3c-.2,0-.4-.2-.4-.4l-.4-7.1c0-.2.2-.5.4-.5.3,0,.5.2.5.4l.4,7.1c0,.3-.2.5-.4.5ZM18.4,23.8c0,.2-.2.4-.4.4s-.4-.2-.4-.4v-7.1c0-.2.2-.4.4-.4s.4.2.4.4v7.1ZM21.1,16.7l-.4,7.1c0,.2-.2.4-.5.4-.2,0-.4-.2-.4-.5l.4-7.1c0-.2.2-.4.5-.4.2,0,.4.2.4.5Z"/>
  <path class="cls-4" d="M23.7,12.7h-2.6v-.4c0-.7-.6-1.3-1.3-1.3h-3.5c-.7,0-1.3.6-1.3,1.3v.4h-2.6c-.5,0-.9.4-.9.9s.4.9.9.9h11.5c.5,0,.9-.4.9-.9s-.4-.9-.9-.9ZM20.2,12.7h-4.4v-.4c0-.2.2-.4.4-.4h3.5c.2,0,.4.2.4.4v.4Z"/>
</svg>