<svg width="30" height="30" viewBox="0 0 30 30" fill="none" xmlns="http://www.w3.org/2000/svg">
<g id="food-tray 1" clip-path="url(#clip0_440_5308)">
<g id="Group">
<g id="Group_2">
<path id="Vector" d="M16.9607 17.4454C16.9607 17.4454 18.5694 14.4315 18.3487 14.0179C18.3487 14.0177 18.3487 14.0175 18.3487 14.0173C17.5291 14.1946 16.8111 14.7135 16.3898 15.4612L15.348 17.3097L13.0078 19.7414C14.5734 19.019 16.9607 17.4454 16.9607 17.4454Z" fill="#E2AE84"/>
<path id="Vector_2" d="M18.976 13.9497C18.7625 13.9497 18.5525 13.9736 18.3486 14.0177C18.3348 14.0652 18.3139 14.112 18.2833 14.1566L18.1292 14.3816C18.0972 14.4253 18.0664 14.47 18.0372 14.516L16.4839 16.9684C16.4839 16.9684 14.5733 19.0187 13.0077 19.7411L12.4773 20.2921C12.5662 20.3554 12.6609 20.411 12.7634 20.4562C14.2285 21.1018 17.8721 18.4785 17.8721 18.4785L19.1259 15.0604C19.1551 15.0142 19.186 14.9695 19.218 14.9259L19.3721 14.7009C19.5902 14.3824 19.3621 13.9497 18.976 13.9497Z" fill="#D7A379"/>
<path id="Vector_3" d="M9.40531 26.7542H10.6097C11.9483 25.8502 15.623 22.9854 16.633 21.7248L18.75 18.9021C19.3311 18.1769 19.8969 17.3364 20.3291 16.5138L21.1894 14.6285C21.2858 14.4451 21.0331 14.1061 20.7987 13.9758C20.1153 14.0757 19.5015 14.4674 19.126 15.0604L17.5727 17.5128C17.5727 17.5128 14.2286 21.1019 12.7635 20.4563C12.5207 20.3493 12.3185 20.1883 12.1478 19.9871C11.8808 19.8144 11.8014 19.7696 11.6748 19.6806C10.4885 18.8478 10.7238 16.9333 10.5642 15.0442C10.5287 14.6238 10.1306 14.2262 9.5498 13.9624C9.48084 13.9543 9.41088 13.9497 9.33986 13.9497C9.03658 13.9497 8.78416 14.1826 8.75978 14.4849L8.55922 16.9752C8.46382 18.1595 8.08332 19.2983 7.48396 20.3241C6.52941 21.958 6.57505 23.9217 6.57505 23.9217L7.02377 26.3327L9.40531 26.7542Z" fill="#F0C69E"/>
<g id="Group_3">
<path id="Vector_4" d="M10.0369 15.0443C10.1965 16.9333 10.2799 19.2974 11.6748 19.9119C11.8164 19.9743 11.9758 19.9968 12.1478 19.9871C11.338 19.0322 11.2575 17.1488 11.1256 15.5886C11.0533 14.7323 10.3846 14.0601 9.5498 13.9624C9.82186 14.248 10.0014 14.6238 10.0369 15.0443Z" fill="#E6BA94"/>
<path id="Vector_5" d="M21.1442 13.9497C21.0275 13.9497 20.9122 13.9591 20.7987 13.9758C20.8467 14.1526 20.8328 14.349 20.7364 14.5323L19.7859 16.3412C19.3537 17.1639 18.8435 17.9432 18.2625 18.6684L16.0981 21.3696C15.0881 22.6302 13.8936 23.7311 12.555 24.635L9.40524 26.7541L9.27856 27.62L10.1682 27.5177L13.6437 25.1794C14.9823 24.2754 16.1768 23.1745 17.1868 21.914L19.3512 19.2128C19.9323 18.4876 20.4424 17.7083 20.8747 16.8856L21.8251 15.0767C22.0942 14.5645 21.7228 13.9497 21.1442 13.9497Z" fill="#E6BA94"/>
</g>
<path id="Vector_6" d="M16.1838 1.29393V1.18383C16.1838 0.52998 15.6537 0 14.9999 0C14.3461 0 13.8162 0.52998 13.8162 1.18377V1.29387L14.9999 1.7434L16.1838 1.29393Z" fill="#F1CD65"/>
<path id="Vector_7" d="M13.8162 1.29388V2.38261L14.9999 2.84966L16.1838 2.38255V1.29388C15.7944 1.2545 15.3997 1.23364 14.9999 1.23364C14.6002 1.23358 14.2055 1.2545 13.8162 1.29388Z" fill="#EBB34F"/>
<path id="Vector_8" d="M26.1818 10.7544C24.7934 5.88658 20.3135 2.32227 15.0001 2.32227C9.6867 2.32227 5.2068 5.88664 3.81836 10.7544L15.0001 11.2818L26.1818 10.7544Z" fill="#D0E4FD"/>
<path id="Vector_9" d="M3.81836 10.7546C3.71676 11.1109 3.63109 11.474 3.56348 11.8434H26.4367C26.3691 11.474 26.2834 11.1109 26.1818 10.7546H3.81836Z" fill="#C5DCFA"/>
<path id="Vector_10" d="M2.03052 12.3522C2.03052 12.9201 2.54878 13.3885 2.93099 13.3885H27.0691C27.4513 13.3885 27.9696 12.9564 27.9696 12.3522C27.785 12.0475 27.4513 11.8433 27.0691 11.8433H2.93099C2.54878 11.8432 2.21509 12.0475 2.03052 12.3522Z" fill="#315771"/>
<path id="Vector_11" d="M7.9475 29.3785L9.43877 28.9418L9.98814 27.3378L6.26381 23.6135C6.07994 23.4296 5.78182 23.4296 5.59795 23.6135L4.22311 24.9883C4.03924 25.1722 4.03924 25.4703 4.22311 25.6542L7.9475 29.3785Z" fill="#EDF3FC"/>
<path id="Vector_12" d="M9.98821 27.3379L7.94751 29.3786L8.43108 29.8622C8.61495 30.0461 8.91308 30.0461 9.09694 29.8622L10.4718 28.4874C10.6557 28.3035 10.6557 28.0054 10.4718 27.8215L9.98821 27.3379Z" fill="#E0EBF9"/>
<path id="Vector_13" d="M27.0691 12.8612H2.93097C2.5487 12.8612 2.21507 12.6569 2.0305 12.3523C1.93417 12.5113 1.87769 12.6972 1.87769 12.8966C1.87769 13.4783 2.34925 13.9499 2.93103 13.9499H27.0692C27.6509 13.9499 28.1225 13.4783 28.1225 12.8966C28.1225 12.6971 28.066 12.5113 27.9697 12.3523C27.785 12.6569 27.4514 12.8612 27.0691 12.8612Z" fill="#2A4A5F"/>
</g>
<g id="Group_4">
<path id="Vector_14" d="M6.15455 24.9405C5.97707 24.763 5.68925 24.763 5.51177 24.9405C5.33429 25.118 5.33429 25.4058 5.51177 25.5833L5.94988 26.0214C6.03865 26.1101 6.15496 26.1545 6.27126 26.1545C6.38757 26.1545 6.50388 26.1101 6.59265 26.0214C6.77019 25.8439 6.77019 25.5561 6.59265 25.3786L6.15455 24.9405Z" fill="#315771"/>
</g>
</g>
</g>
<defs>
<clipPath id="clip0_440_5308">
<rect width="30" height="30" fill="white"/>
</clipPath>
</defs>
</svg>
