<svg width="80" height="80" viewBox="0 0 80 80" fill="none" xmlns="http://www.w3.org/2000/svg">
<path d="M61.4063 47.6719H60.25C59.8125 39.5 53.8281 32.7813 46.0156 31.1875L46.25 29C46.3281 28.2813 46.0938 27.5781 45.6094 27.0312C45.125 26.5 44.4375 26.1875 43.7188 26.1875H41.1875C40.4688 26.1875 39.7813 26.5 39.2969 27.0312C38.8125 27.5625 38.5781 28.2813 38.6563 29L38.8906 31.1875C31.0781 32.7813 25.0938 39.5 24.6562 47.6719H23.5C22.4844 47.6719 21.6562 48.5 21.6562 49.5156V51.9688C21.6562 52.9844 22.4844 53.8125 23.5 53.8125H61.4063C62.4219 53.8125 63.25 52.9844 63.25 51.9688V49.5156C63.25 48.5 62.4375 47.6719 61.4063 47.6719ZM41.0781 28.625C41.1094 28.5937 41.1563 28.5781 41.2031 28.5781H43.7344C43.7813 28.5781 43.8281 28.5937 43.8594 28.625C43.8906 28.6562 43.9063 28.7031 43.9063 28.75L43.6875 30.875C43.2813 30.8438 42.8906 30.8281 42.4844 30.8281C42.0781 30.8281 41.6719 30.8438 41.2813 30.875L41.0625 28.75C41.0312 28.7031 41.0469 28.6562 41.0781 28.625ZM60.8906 51.4375H24.0469V50.0469H29.0469C29.7031 50.0469 30.2344 49.5156 30.2344 48.8594C30.2344 48.2031 29.7031 47.6719 29.0469 47.6719H27.0469C27.5469 39.6094 34.2812 33.2031 42.4688 33.2031C50.6563 33.2031 57.3906 39.6094 57.8906 47.6719H34.5625C33.9063 47.6719 33.375 48.2031 33.375 48.8594C33.375 49.5156 33.9063 50.0469 34.5625 50.0469H60.8906V51.4375Z" fill="#0F172A"/>
<path d="M70.5469 0H14.375C12.7188 0 11.3594 1.35937 11.3594 3.01562V5.15625H10.25C8.21875 5.15625 6.5625 6.8125 6.5625 8.85938C6.5625 10.9062 8.21875 12.5469 10.25 12.5469H11.3594V17.625H10.25C8.21875 17.625 6.5625 19.2812 6.5625 21.3125C6.5625 23.3438 8.21875 25 10.25 25H11.3594V30.0781H10.25C8.21875 30.0781 6.5625 31.7344 6.5625 33.7656C6.5625 35.7969 8.21875 37.4531 10.25 37.4531H11.3594V42.5312H10.25C8.21875 42.5312 6.5625 44.1875 6.5625 46.2188C6.5625 48.25 8.21875 49.9062 10.25 49.9062H11.3594V55H10.25C8.21875 55 6.5625 56.6562 6.5625 58.6875C6.5625 60.7188 8.21875 62.375 10.25 62.375H11.3594V67.4531H10.25C8.21875 67.4531 6.5625 69.1094 6.5625 71.1406C6.5625 73.1719 8.21875 74.8438 10.25 74.8438H11.3594V76.9844C11.3594 78.6562 12.7188 80 14.375 80H70.5312C72.2031 80 73.5469 78.6406 73.5469 76.9844V3.01562C73.5625 1.35937 72.2031 0 70.5469 0ZM11.3594 10.1719H10.25C9.51562 10.1719 8.92187 9.57812 8.92187 8.84375C8.92187 8.10938 9.51562 7.51562 10.25 7.51562H11.3594V10.1719ZM11.3594 22.6406H10.25C9.51562 22.6406 8.92187 22.0469 8.92187 21.3125C8.92187 20.5781 9.51562 19.9844 10.25 19.9844H11.3594V22.6406ZM11.3594 35.0938H10.25C9.51562 35.0938 8.92187 34.5 8.92187 33.7656C8.92187 33.0312 9.51562 32.4375 10.25 32.4375H11.3594V35.0938ZM11.3594 47.5469H10.25C9.51562 47.5469 8.92187 46.9531 8.92187 46.2188C8.92187 45.4844 9.51562 44.8906 10.25 44.8906H11.3594V47.5469ZM11.3594 60H10.25C9.51562 60 8.92187 59.4062 8.92187 58.6719C8.92187 57.9375 9.51562 57.3438 10.25 57.3438H11.3594V60ZM11.3594 72.4688H10.25C9.51562 72.4688 8.92187 71.875 8.92187 71.1406C8.92187 70.4062 9.51562 69.8125 10.25 69.8125H11.3594V72.4688ZM71.1875 76.9844C71.1875 77.3438 70.8906 77.6406 70.5469 77.6406H14.375C14.0156 77.6406 13.7344 77.3438 13.7344 76.9844V3.01562C13.7344 2.65625 14.0312 2.375 14.375 2.375H70.5312C70.8906 2.375 71.1719 2.67187 71.1719 3.01562V76.9844H71.1875Z" fill="#0F172A"/>
</svg>
