<svg width="15" height="15" viewBox="0 0 15 15" fill="none" xmlns="http://www.w3.org/2000/svg">
<g clip-path="url(#clip0_84_724)">
<path d="M2.19727 5.88867H7.17773C7.42043 5.88867 7.61719 5.69191 7.61719 5.44922C7.61719 5.20652 7.42043 5.00977 7.17773 5.00977H2.19727C1.95457 5.00977 1.75781 5.20652 1.75781 5.44922C1.75781 5.69191 1.95457 5.88867 2.19727 5.88867Z" fill="#F8FAFC"/>
<path d="M2.19727 7.64648H6.00586C6.24855 7.64648 6.44531 7.44973 6.44531 7.20703C6.44531 6.96434 6.24855 6.76758 6.00586 6.76758H2.19727C1.95457 6.76758 1.75781 6.96434 1.75781 7.20703C1.75781 7.44973 1.95457 7.64648 2.19727 7.64648Z" fill="#F8FAFC"/>
<path d="M2.19727 9.4043H6.00586C6.24855 9.4043 6.44531 9.20754 6.44531 8.96484C6.44531 8.72215 6.24855 8.52539 6.00586 8.52539H2.19727C1.95457 8.52539 1.75781 8.72215 1.75781 8.96484C1.75781 9.20754 1.95457 9.4043 2.19727 9.4043Z" fill="#F8FAFC"/>
<path d="M7.17773 10.2832H2.19727C1.95457 10.2832 1.75781 10.48 1.75781 10.7227C1.75781 10.9654 1.95457 11.1621 2.19727 11.1621H7.17773C7.42043 11.1621 7.61719 10.9654 7.61719 10.7227C7.61719 10.48 7.42043 10.2832 7.17773 10.2832Z" fill="#F8FAFC"/>
<path d="M14.8713 7.77522L13.1135 6.0174C12.9419 5.84578 12.6636 5.84578 12.492 6.0174C12.3204 6.18902 12.3204 6.46726 12.492 6.63888L13.4996 7.64648H11.4258V3.36914C11.4258 3.2526 11.3795 3.14083 11.2971 3.05842L8.36748 0.12873C8.2851 0.0463184 8.1733 0 8.05676 0H1.61133C0.722842 0 0 0.722842 0 1.61133V13.3887C0 14.2772 0.722842 15 1.61133 15H9.81445C10.7029 15 11.4258 14.2772 11.4258 13.3887V8.52539H13.4996L12.492 9.53303C12.3204 9.70465 12.3204 9.98288 12.492 10.1545C12.5778 10.2403 12.6903 10.2832 12.8027 10.2832C12.9152 10.2832 13.0277 10.2403 13.1135 10.1545L14.8713 8.39666C15.0429 8.22507 15.0429 7.94684 14.8713 7.77522ZM9.9254 2.92969H8.49609V1.50041L9.9254 2.92969ZM10.5469 13.3887C10.5469 13.7925 10.2183 14.1211 9.81445 14.1211H1.61133C1.20747 14.1211 0.878906 13.7925 0.878906 13.3887V1.61133C0.878906 1.20747 1.20747 0.878906 1.61133 0.878906H7.61719V3.36914C7.61719 3.61184 7.81395 3.80859 8.05664 3.80859H10.5469V7.64648H7.5293C7.2866 7.64648 7.08984 7.84324 7.08984 8.08594C7.08984 8.32863 7.2866 8.52539 7.5293 8.52539H10.5469V13.3887Z" fill="#F8FAFC"/>
</g>
<defs>
<clipPath id="clip0_84_724">
<rect width="15" height="15" fill="white"/>
</clipPath>
</defs>
</svg>
