<svg width="15" height="15" viewBox="0 0 15 15" fill="none" xmlns="http://www.w3.org/2000/svg">
<path fill-rule="evenodd" clip-rule="evenodd" d="M2.5 5V3.75C2.5 2.36875 3.61937 1.25 5 1.25H11.25C12.6313 1.25 13.75 2.36875 13.75 3.75C13.75 5.83063 13.75 9.16875 13.75 11.25C13.75 12.6306 12.6313 13.75 11.25 13.75C9.46313 13.75 6.7875 13.75 5 13.75C3.61937 13.75 2.5 12.6306 2.5 11.25V10C2.5 9.655 2.78 9.375 3.125 9.375C3.47 9.375 3.75 9.655 3.75 10C3.75 10 3.75 10.5856 3.75 11.25C3.75 11.94 4.31 12.5 5 12.5H11.25C11.9406 12.5 12.5 11.94 12.5 11.25V3.75C12.5 3.05937 11.9406 2.5 11.25 2.5C9.46313 2.5 6.7875 2.5 5 2.5C4.31 2.5 3.75 3.05937 3.75 3.75C3.75 4.41375 3.75 5 3.75 5C3.75 5.34437 3.47 5.625 3.125 5.625C2.78 5.625 2.5 5.34437 2.5 5ZM7.24125 8.125L6.43312 8.9325C6.18937 9.17688 6.18937 9.5725 6.43312 9.81688C6.6775 10.0606 7.07313 10.0606 7.31688 9.81688L9.19188 7.94188C9.43625 7.6975 9.43625 7.30188 9.19188 7.0575L7.31688 5.1825C7.07313 4.93876 6.6775 4.93876 6.43312 5.1825C6.18937 5.42688 6.18937 5.8225 6.43312 6.06688L7.24125 6.875H1.875C1.53 6.875 1.25 7.155 1.25 7.5C1.25 7.84438 1.53 8.125 1.875 8.125H7.24125Z" fill="#F8FAFC"/>
</svg>
