<svg width="15" height="15" viewBox="0 0 15 15" fill="none" xmlns="http://www.w3.org/2000/svg">
<g clip-path="url(#clip0_84_737)">
<path d="M14.2464 14.5003V5.25512C14.2464 5.11713 14.1345 5.00525 13.9966 5.00525H11.4979C11.3599 5.00525 11.248 5.11713 11.248 5.25512V14.5003H10.7483V8.75328C10.7483 8.61529 10.6364 8.50341 10.4984 8.50341H7.99971C7.86172 8.50341 7.74984 8.61529 7.74984 8.75328V14.5003H7.2501V6.25459C7.2501 6.1166 7.13822 6.00472 7.00023 6.00472H4.50154C4.36355 6.00472 4.25168 6.1166 4.25168 6.25459V14.5003H3.75194V9.75276C3.75194 9.61477 3.64006 9.50289 3.50207 9.50289H1.00338C0.865391 9.50289 0.753513 9.61477 0.753513 9.75276V14.5003H0.00390625V15H14.996V14.5003H14.2464ZM3.2522 14.5003H1.25325V10.0026H3.2522V14.5003ZM6.75036 14.5003H4.75141V6.50446H6.75036V14.5003ZM10.2485 14.5003H8.24958V9.00315H10.2485V14.5003ZM13.7467 14.5003H11.7477V5.50499H13.7467V14.5003Z" fill="#F8FAFC"/>
<path d="M1.56369 6.79706C1.76809 6.93217 2.00771 7.00423 2.25274 7.0042C2.94272 7.00417 3.50205 6.4448 3.50202 5.75479C3.50202 5.50986 3.43 5.2703 3.29494 5.06597L5.06351 3.29714C5.26622 3.43279 5.5045 3.50547 5.7484 3.50603C5.82196 3.50607 5.89536 3.49963 5.96779 3.48679C6.20551 3.44513 6.42589 3.335 6.60196 3.16996L8.08443 4.30961C7.83699 4.95371 8.15854 5.67646 8.80264 5.92389C9.44674 6.17132 10.1695 5.84977 10.4169 5.20567C10.562 4.82793 10.5152 4.40331 10.2913 4.06624L12.0593 2.29817C12.6364 2.68016 13.4139 2.52196 13.7959 1.94485C14.1779 1.36775 14.0197 0.590252 13.4426 0.208297C12.8655 -0.17369 12.088 -0.0154921 11.706 0.561611C11.4285 0.980922 11.4285 1.52554 11.706 1.94485L9.93795 3.71293C9.44275 3.3856 8.78559 3.45191 8.36578 3.87159C8.36103 3.87634 8.35828 3.88184 8.35379 3.88633L6.8928 2.76342C7.17344 2.13307 6.88993 1.39458 6.25957 1.11395C5.62922 0.833312 4.89073 1.11682 4.6101 1.74718C4.43653 2.13707 4.47398 2.58861 4.70945 2.94455L2.94163 4.71262C2.36602 4.3321 1.59096 4.49027 1.21044 5.06587C0.829955 5.64148 0.988091 6.41654 1.56369 6.79706ZM12.7472 0.507608C13.1612 0.507608 13.4968 0.843213 13.4968 1.25721C13.4968 1.67122 13.1612 2.00682 12.7472 2.00682C12.3332 2.00682 11.9976 1.67122 11.9976 1.25721C11.9976 0.843213 12.3332 0.507608 12.7472 0.507608ZM8.71875 4.2255C8.85936 4.08479 9.05014 4.00574 9.24907 4.00577C9.66307 4.00571 9.9987 4.34128 9.99877 4.75528C9.9988 4.95421 9.91974 5.14499 9.77904 5.2856C9.48232 5.56842 9.01581 5.56842 8.71909 5.2856C8.42625 4.99294 8.42612 4.51832 8.71875 4.2255ZM5.13691 1.82676C5.13694 1.82673 5.13694 1.8267 5.13697 1.82667C5.2506 1.66344 5.42476 1.5524 5.62072 1.51833C5.66423 1.51086 5.70827 1.50711 5.7524 1.50708C5.90579 1.50724 6.0554 1.55462 6.18093 1.64276C6.52003 1.88026 6.60242 2.34767 6.36492 2.68678C6.12742 3.02588 5.66001 3.10824 5.32091 2.87077C4.98181 2.63327 4.89941 2.16586 5.13691 1.82676ZM1.72242 5.22498C1.72255 5.22485 1.72264 5.22476 1.72277 5.22463C2.01561 4.93194 2.49027 4.93204 2.78296 5.22488C3.07565 5.51773 3.07556 5.99239 2.78271 6.28508C2.48599 6.5679 2.01949 6.5679 1.72277 6.28508C1.42992 5.99242 1.4298 5.51779 1.72242 5.22498Z" fill="#F8FAFC"/>
</g>
<defs>
<clipPath id="clip0_84_737">
<rect width="15" height="15" fill="white"/>
</clipPath>
</defs>
</svg>
