<svg width="15" height="15" viewBox="0 0 15 15" fill="none" xmlns="http://www.w3.org/2000/svg">
<g clip-path="url(#clip0_84_750)">
<path d="M11.5 1.74967V0.785661C11.5025 0.538711 11.3926 0.304037 11.2013 0.147823C11.0391 0.0179169 10.8261 -0.0298382 10.624 0.0184149L3.44812 1.75488C3.05589 1.78131 2.7509 2.1066 2.74976 2.49969V14.25C2.7502 14.664 3.08574 14.9996 3.49978 15H11.5C11.914 14.9996 12.2496 14.664 12.25 14.25V2.49969C12.2495 2.08565 11.914 1.75014 11.5 1.74967ZM10.7417 0.504521C10.7947 0.492216 10.8505 0.505634 10.8921 0.540762C10.9632 0.601848 11.0029 0.691879 11 0.785632V1.74967H5.59614L10.7417 0.504521ZM11.75 14.25C11.7498 14.388 11.638 14.4998 11.5 14.5H3.49978C3.36178 14.4998 3.24995 14.388 3.24978 14.25V2.49969C3.24995 2.3617 3.36178 2.24987 3.49978 2.24969H11.5C11.638 2.24987 11.7498 2.3617 11.75 2.49969V14.25Z" fill="#48F7F4"/>
<path d="M8.74981 10.6914C9.16384 10.691 9.49939 10.3554 9.49983 9.94139V6.94131C9.77587 6.94105 9.99955 6.71733 9.99985 6.44129V4.94125C9.99985 3.84845 9.4376 3.08976 8.53239 2.96109L8.28482 2.92605C8.21313 2.91591 8.14056 2.93738 8.08586 2.98485C8.03119 3.03234 7.99979 3.10119 7.99976 3.17361V9.94136C8.00025 10.3554 8.33577 10.6909 8.74981 10.6914ZM8.49981 3.46207C9.40144 3.61492 9.49983 4.5445 9.49983 4.94122V6.44126H9.24983C9.11175 6.44126 8.99983 6.55321 8.99983 6.69126V9.94133C8.99983 10.0794 8.88791 10.1913 8.74983 10.1913C8.61175 10.1913 8.49984 10.0794 8.49984 9.94133V3.46207H8.49981Z" fill="#48F7F4"/>
<path d="M5.49991 6.05659V9.94145C5.49991 10.3557 5.83569 10.6915 6.24993 10.6915C6.66417 10.6915 6.99995 10.3557 6.99995 9.94145V6.05659C7.30986 5.87884 7.50067 5.5486 7.49997 5.19134V3.19128C7.49997 3.0532 7.38805 2.94128 7.24997 2.94128C7.11189 2.94128 6.99997 3.0532 6.99997 3.19128V4.44132C6.99997 4.5794 6.88803 4.69132 6.74998 4.69132C6.6119 4.69132 6.49998 4.5794 6.49998 4.44132V3.19128C6.49998 3.0532 6.38806 2.94128 6.24998 2.94128C6.11191 2.94128 5.99999 3.0532 5.99999 3.19128V4.44132C5.99999 4.5794 5.88807 4.69132 5.74999 4.69132C5.61191 4.69132 5.5 4.5794 5.5 4.44132V3.19128C5.5 3.0532 5.38808 2.94128 5.25 2.94128C5.11192 2.94128 5 3.0532 5 3.19128V5.19134C4.99915 5.54857 5.19 5.87881 5.49991 6.05659ZM5.49991 5.14523C5.57998 5.17488 5.66456 5.19046 5.7499 5.19131C5.93504 5.19073 6.11331 5.12117 6.24993 4.99625C6.45146 5.1841 6.74192 5.24182 6.99995 5.14526V5.19131C7.00118 5.40211 6.86822 5.59037 6.66912 5.65972C6.56792 5.69426 6.49992 5.78936 6.49992 5.8963V9.94145C6.49992 10.0795 6.38801 10.1914 6.24993 10.1914C6.11185 10.1914 5.99993 10.0795 5.99993 9.94145V5.8963C5.99993 5.78936 5.93193 5.69426 5.83074 5.65972C5.63166 5.59037 5.49871 5.40214 5.49991 5.19131V5.14523Z" fill="#48F7F4"/>
<path d="M4.99975 12.6915H8.49985C8.63793 12.6915 8.74985 12.5796 8.74985 12.4415C8.74985 12.3034 8.6379 12.1915 8.49985 12.1915H4.99975C4.86167 12.1915 4.74976 12.3034 4.74976 12.4415C4.74976 12.5796 4.86167 12.6915 4.99975 12.6915Z" fill="#48F7F4"/>
<path d="M10 12.1915H9.5C9.36192 12.1915 9.25 12.3034 9.25 12.4415C9.25 12.5796 9.36192 12.6915 9.5 12.6915H10C10.1381 12.6915 10.25 12.5796 10.25 12.4415C10.25 12.3034 10.1381 12.1915 10 12.1915Z" fill="#48F7F4"/>
<path d="M10.0001 13.1915H8C7.86192 13.1915 7.75 13.3034 7.75 13.4415C7.75 13.5796 7.86192 13.6915 8 13.6915H10.0001C10.1381 13.6915 10.2501 13.5796 10.2501 13.4415C10.2501 13.3034 10.1381 13.1915 10.0001 13.1915Z" fill="#48F7F4"/>
<path d="M6.99999 13.1915H6.75C6.61192 13.1915 6.5 13.3034 6.5 13.4415C6.5 13.5796 6.61195 13.6915 6.75 13.6915H6.99999C7.13807 13.6915 7.24999 13.5796 7.24999 13.4415C7.24999 13.3034 7.13807 13.1915 6.99999 13.1915Z" fill="#48F7F4"/>
<path d="M5.74977 13.1915H4.99975C4.86167 13.1915 4.74976 13.3034 4.74976 13.4415C4.74976 13.5796 4.86167 13.6915 4.99975 13.6915H5.74977C5.88785 13.6915 5.99977 13.5796 5.99977 13.4415C5.99977 13.3034 5.88785 13.1915 5.74977 13.1915Z" fill="#48F7F4"/>
</g>
<defs>
<clipPath id="clip0_84_750">
<rect width="15" height="15" fill="white"/>
</clipPath>
</defs>
</svg>
