<svg width="15" height="15" viewBox="0 0 15 15" fill="none" xmlns="http://www.w3.org/2000/svg">
<g clip-path="url(#clip0_84_705)">
<path d="M7.86851 8.91682C7.65816 8.91682 7.48765 9.08733 7.48765 9.29768C7.48747 10.2835 6.68817 11.0826 5.7023 11.0824C4.71643 11.0823 3.91735 10.283 3.91753 9.29709C3.91771 8.31134 4.71684 7.51233 5.70259 7.51233C5.91294 7.51233 6.08345 7.34182 6.08345 7.13147C6.08345 6.92112 5.91294 6.75061 5.70259 6.75061C4.29628 6.75158 3.15648 7.89137 3.15552 9.29768C3.15552 10.7043 4.29581 11.8446 5.70244 11.8446C7.10908 11.8446 8.24937 10.7043 8.24937 9.29768C8.24937 9.08733 8.07886 8.91682 7.86851 8.91682Z" fill="#F8FAFC"/>
<path d="M10.8943 10.1737C10.858 9.96648 10.6606 9.82796 10.4534 9.86429L9.65625 10.004C9.51044 10.0296 9.39264 10.1373 9.3542 10.2803C9.26921 10.5958 9.14344 10.8988 8.98008 11.1818C8.90561 11.3103 8.9127 11.4705 8.99825 11.5919L9.46348 12.2549C9.52858 12.3473 9.51768 12.4731 9.4377 12.5529L8.95957 13.031C8.87989 13.1109 8.75426 13.1219 8.66192 13.0571L7.99893 12.5918C7.87746 12.5063 7.71733 12.4992 7.58877 12.5737C7.30585 12.7371 7.00281 12.8628 6.68731 12.9478C6.54434 12.9862 6.43658 13.104 6.41104 13.2498L6.26953 14.0461C6.25017 14.1573 6.15358 14.2384 6.04073 14.2383H5.36426C5.25141 14.2384 5.15485 14.1573 5.13545 14.0461L4.99571 13.2493C4.97016 13.1034 4.8624 12.9856 4.71944 12.9472C4.40388 12.8622 4.10074 12.7364 3.81768 12.5731C3.68912 12.4986 3.52899 12.5057 3.40752 12.5912L2.7457 13.0562C2.65336 13.1213 2.52756 13.1104 2.44776 13.0304L1.96963 12.5523C1.88983 12.4726 1.87884 12.347 1.94356 12.2546L2.40879 11.5916C2.49431 11.4702 2.50143 11.31 2.42695 11.1815C2.26351 10.8986 2.13774 10.5955 2.05283 10.28C2.0144 10.137 1.89659 10.0293 1.75078 10.0037L0.953907 9.864C0.842931 9.84466 0.761896 9.74842 0.76172 9.63577V8.95931C0.761603 8.84646 0.842726 8.74989 0.953907 8.7305L1.75078 8.59075C1.89659 8.56521 2.0144 8.45745 2.05283 8.31448C2.13768 7.99866 2.26345 7.69532 2.42695 7.41214C2.50143 7.28358 2.49431 7.12345 2.40879 7.00198L1.94385 6.34104C1.87875 6.2487 1.88965 6.1229 1.96963 6.04309L2.44805 5.56468C2.52779 5.48484 2.65342 5.47397 2.7457 5.53889L3.40869 6.00413C3.53016 6.08968 3.69029 6.09677 3.81885 6.02229C4.10189 5.8589 4.40502 5.73313 4.72061 5.64817C4.86358 5.60973 4.97133 5.49193 4.99688 5.34612L5.13662 4.54924C5.17295 4.34206 5.03444 4.14465 4.82725 4.10833C4.62006 4.072 4.42266 4.21051 4.38633 4.4177L4.28731 4.98313C4.0701 5.05488 3.85866 5.14303 3.65479 5.2468L3.18457 4.91692C2.78953 4.63895 2.25173 4.68583 1.91074 5.02796L1.43086 5.50462C1.08905 5.84578 1.04233 6.38341 1.32012 6.77845L1.65 7.24866C1.5462 7.4526 1.45805 7.66415 1.38633 7.88148L0.820899 7.9805C0.345763 8.06394 -0.000585121 8.47691 8.16835e-07 8.95931V9.63577C-0.000614418 10.1186 0.346378 10.5319 0.822071 10.6149L1.3875 10.7142C1.45922 10.9314 1.54737 11.1429 1.65117 11.3467L1.32012 11.8169C1.04241 12.212 1.08926 12.7497 1.43115 13.0908L1.90957 13.5689C2.25068 13.9108 2.78839 13.9575 3.1834 13.6796L3.65215 13.3497C3.85603 13.4535 4.06746 13.5416 4.28467 13.6134L4.38369 14.1788C4.46713 14.6547 4.8811 15.0014 5.36426 15H6.04073C6.52371 15.0006 6.937 14.6535 7.01983 14.1777L7.11914 13.6122C7.33635 13.5405 7.54782 13.4523 7.75166 13.3486L8.22217 13.6785C8.61724 13.9563 9.15495 13.9094 9.496 13.5674L9.97442 13.089C10.3163 12.7479 10.3632 12.2103 10.0855 11.8152L9.75586 11.3464C9.85963 11.1425 9.94776 10.9311 10.0195 10.7139L10.585 10.6146C10.7922 10.5783 10.9307 10.3809 10.8943 10.1737Z" fill="#F8FAFC"/>
<path d="M14.2852 3.45703L13.8868 3.3873C13.837 3.24363 13.7783 3.10321 13.711 2.96689L13.9454 2.63672C14.1868 2.29336 14.1461 1.82605 13.849 1.52959L13.4716 1.15137C13.175 0.853594 12.707 0.812755 12.3633 1.05469L12.032 1.28701C11.8957 1.21969 11.7553 1.16098 11.6116 1.11123L11.543 0.714552C11.4709 0.300938 11.1115 -0.000672701 10.6917 1.12679e-06H10.1588C9.73893 -0.000526217 9.37966 0.301231 9.30767 0.714844L9.23765 1.11328C9.09398 1.16303 8.95356 1.22174 8.81724 1.28906L8.48589 1.05469C8.14253 0.813223 7.67522 0.853917 7.37876 1.15107L7.00201 1.52842C6.70423 1.82502 6.66339 2.29304 6.90533 2.63672L7.13765 2.96807C7.07033 3.10438 7.01162 3.2448 6.96187 3.38848L6.5649 3.45703C6.1514 3.52916 5.84982 3.88837 5.85034 4.3081V4.84101C5.84952 5.26096 6.15119 5.62052 6.5649 5.69267L6.96304 5.7624C7.01279 5.90607 7.0715 6.04649 7.13882 6.18281L6.9062 6.51416C6.66471 6.8574 6.70514 7.32463 7.00201 7.62129L7.37876 7.99804C7.67528 8.29538 8.14277 8.33607 8.48619 8.09443L8.81842 7.86211C8.95476 7.9294 9.09515 7.98811 9.23883 8.03789L9.30885 8.43632C9.38097 8.84982 9.74019 9.1514 10.1599 9.15088H10.6928C11.1127 9.15088 11.4716 8.84862 11.543 8.43486L11.6128 8.03672C11.7564 7.98697 11.8968 7.92826 12.0332 7.86093L12.3633 8.09472C12.707 8.33677 13.1751 8.29593 13.4716 7.99804L13.8487 7.62099C14.1457 7.3246 14.1865 6.85755 13.9454 6.51416L13.7125 6.18164C13.7798 6.04529 13.8385 5.9049 13.8882 5.76123L14.2867 5.69121C14.6993 5.61867 15.0001 5.26022 15.0001 4.84131V4.3084C15.0007 3.88846 14.699 3.52904 14.2852 3.45703ZM14.2383 4.84219C14.2384 4.8919 14.2026 4.93441 14.1537 4.94297L13.5256 5.05312C13.3797 5.07867 13.2619 5.18642 13.2235 5.32939C13.1583 5.57127 13.0619 5.80359 12.9367 6.02051C12.8622 6.14906 12.8693 6.3092 12.9548 6.43066L13.3214 6.95332C13.35 6.99401 13.3452 7.04944 13.3099 7.08457L12.9332 7.46133C12.8976 7.49546 12.8428 7.49938 12.8028 7.4707L12.2793 7.10449C12.1578 7.01894 11.9977 7.01185 11.8691 7.08633C11.6522 7.2116 11.4199 7.30802 11.178 7.37314C11.0353 7.41205 10.9281 7.53006 10.9029 7.67578L10.7927 8.3039C10.7842 8.35286 10.7417 8.3886 10.692 8.38857H10.1588C10.109 8.3886 10.0665 8.35286 10.058 8.3039L9.94752 7.67578C9.92197 7.52997 9.81422 7.41217 9.67125 7.37373C9.42929 7.30857 9.19687 7.21216 8.97984 7.08691C8.85129 7.01244 8.69115 7.01953 8.56968 7.10508L8.04849 7.4707C8.0078 7.49935 7.95237 7.49452 7.91724 7.45927L7.54048 7.08252C7.50524 7.04739 7.5004 6.99196 7.52906 6.95127L7.89556 6.42861C7.98111 6.30715 7.9882 6.14701 7.91373 6.01846C7.78842 5.80157 7.69201 5.56922 7.62691 5.32734C7.58791 5.18478 7.46994 5.07765 7.32427 5.05254L6.69615 4.94238C6.64719 4.93383 6.61145 4.89132 6.61148 4.8416L6.61177 4.3084C6.61174 4.25868 6.64748 4.21617 6.69644 4.20762L7.32427 4.09717C7.47008 4.07162 7.58789 3.96387 7.62632 3.8209C7.69145 3.57902 7.78787 3.3467 7.91314 3.12978C7.98761 3.00123 7.98052 2.84109 7.89498 2.71963L7.52935 2.19727C7.5007 2.15657 7.50553 2.10114 7.54078 2.06602L7.91783 1.68897C7.95296 1.65372 8.00838 1.64889 8.04908 1.67754L8.57144 2.04404C8.69291 2.12956 8.85304 2.13668 8.9816 2.06221C9.19851 1.93693 9.43084 1.84052 9.67271 1.77539C9.81568 1.73695 9.92344 1.61915 9.94898 1.47334L10.0591 0.845216C10.0681 0.797139 10.1099 0.762159 10.1588 0.761719H10.6917C10.7414 0.76169 10.7839 0.797432 10.7924 0.846387L10.9026 1.47451C10.9281 1.62032 11.0359 1.73813 11.1789 1.77656C11.4207 1.84166 11.6531 1.93808 11.87 2.06338C11.9985 2.13785 12.1587 2.13076 12.2801 2.04521L12.8028 1.67871C12.8435 1.65006 12.8989 1.65489 12.934 1.69014L13.3111 2.06719C13.3453 2.10246 13.3497 2.15707 13.3214 2.19727L12.9548 2.7208C12.8693 2.84227 12.8622 3.0024 12.9367 3.13096C13.0619 3.34787 13.1583 3.58019 13.2235 3.82207C13.2619 3.96504 13.3797 4.07279 13.5256 4.09834L14.1537 4.2085C14.2026 4.21705 14.2384 4.25956 14.2383 4.30928V4.84219Z" fill="#F8FAFC"/>
<path d="M10.4251 2.75537C9.42016 2.75537 8.60547 3.57006 8.60547 4.575C8.60661 5.57947 9.42062 6.39349 10.4251 6.39463C11.43 6.39463 12.2447 5.57994 12.2447 4.575C12.2447 3.57006 11.43 2.75537 10.4251 2.75537ZM10.4251 5.63291C9.84083 5.63291 9.36719 5.15927 9.36719 4.575C9.36704 3.99044 9.84054 3.51627 10.4251 3.51562V3.51709C11.0094 3.51709 11.483 3.99073 11.483 4.575C11.483 5.15927 11.0094 5.63291 10.4251 5.63291Z" fill="#F8FAFC"/>
</g>
<defs>
<clipPath id="clip0_84_705">
<rect width="15" height="15" fill="white"/>
</clipPath>
</defs>
</svg>
