<svg width="20" height="20" viewBox="0 0 20 20" fill="none" xmlns="http://www.w3.org/2000/svg">
<path d="M17.5 7.5C18.8783 7.5 20 8.62168 20 10C20 11.3783 18.8783 12.5 17.5 12.5C16.1217 12.5 15 11.3783 15 10C15 8.62168 16.1217 7.5 17.5 7.5ZM17.5 11.6667C18.4192 11.6667 19.1667 10.9192 19.1667 10C19.1667 9.08082 18.4192 8.33332 17.5 8.33332C16.5808 8.33332 15.8333 9.08082 15.8333 10C15.8333 10.9192 16.5808 11.6667 17.5 11.6667Z" fill="#F8FAFC"/>
<path d="M10 7.5C11.3783 7.5 12.5 8.62168 12.5 10C12.5 11.3783 11.3783 12.5 10 12.5C8.62168 12.5 7.5 11.3783 7.5 10C7.5 8.62168 8.62168 7.5 10 7.5ZM10 11.6667C10.9192 11.6667 11.6667 10.9192 11.6667 10C11.6667 9.08082 10.9192 8.33332 10 8.33332C9.08082 8.33332 8.33332 9.08082 8.33332 10C8.33332 10.9192 9.08082 11.6667 10 11.6667Z" fill="#F8FAFC"/>
<path d="M2.5 7.5C3.87832 7.5 5 8.62168 5 10C5 11.3783 3.87832 12.5 2.5 12.5C1.12168 12.5 0 11.3783 0 10C0 8.62168 1.12168 7.5 2.5 7.5ZM2.5 11.6667C3.41918 11.6667 4.16668 10.9192 4.16668 10C4.16668 9.08082 3.41918 8.33332 2.5 8.33332C1.58082 8.33332 0.833321 9.08082 0.833321 10C0.833321 10.9192 1.58082 11.6667 2.5 11.6667Z" fill="#F8FAFC"/>
</svg>
