<svg width="15" height="15" viewBox="0 0 15 15" fill="none" xmlns="http://www.w3.org/2000/svg">
<g clip-path="url(#clip0_84_769)">
<path d="M0.808245 7.05811L2.05824 5.80811L7.05824 0.808114C7.17545 0.690944 7.33439 0.625122 7.50012 0.625122C7.66584 0.625122 7.82479 0.690944 7.94199 0.808114L12.942 5.80811L14.192 7.05811C14.3058 7.17599 14.3688 7.33386 14.3674 7.49774C14.366 7.66161 14.3003 7.81837 14.1844 7.93425C14.0685 8.05013 13.9117 8.11586 13.7479 8.11728C13.584 8.11871 13.4261 8.05571 13.3082 7.94186L13.1251 7.75873V13.75C13.1251 13.9157 13.0593 14.0747 12.9421 14.1919C12.8248 14.3091 12.6659 14.375 12.5001 14.375H2.50012C2.33436 14.375 2.17539 14.3091 2.05818 14.1919C1.94097 14.0747 1.87512 13.9157 1.87512 13.75V7.75873L1.69199 7.94186C1.57412 8.05571 1.41624 8.11871 1.25237 8.11728C1.0885 8.11586 0.931739 8.05013 0.815859 7.93425C0.699979 7.81837 0.634248 7.66161 0.632823 7.49774C0.631399 7.33386 0.694396 7.17599 0.808245 7.05811ZM3.12512 13.125H11.8751V6.50874L7.50012 2.13374L3.12512 6.50874V13.125Z" fill="#EBFFFF"/>
</g>
<defs>
<clipPath id="clip0_84_769">
<rect width="15" height="15" fill="white" transform="matrix(-1 0 0 1 15 0)"/>
</clipPath>
</defs>
</svg>
